<svg width="22" height="18" viewBox="0 0 22 18" fill="none" xmlns="http://www.w3.org/2000/svg">
<path d="M0.758523 3.27273H3.03409L5.4375 9.13636H5.53977L7.94318 3.27273H10.2188V12H8.42898V6.3196H8.35653L6.09801 11.9574H4.87926L2.62074 6.2983H2.5483V12H0.758523V3.27273ZM11.739 12V3.27273H15.2333C15.8754 3.27273 16.4109 3.3679 16.8398 3.55824C17.2688 3.74858 17.5913 4.01278 17.8072 4.35085C18.0231 4.68608 18.131 5.07244 18.131 5.50994C18.131 5.85085 18.0629 6.15057 17.9265 6.40909C17.7901 6.66477 17.6026 6.875 17.364 7.03977C17.1282 7.2017 16.8583 7.31676 16.5543 7.38494V7.47017C16.8867 7.48437 17.1978 7.57812 17.4876 7.75142C17.7802 7.92472 18.0174 8.16761 18.1992 8.48011C18.381 8.78977 18.4719 9.15909 18.4719 9.58807C18.4719 10.0511 18.3569 10.4645 18.1268 10.8281C17.8995 11.1889 17.5629 11.4744 17.1168 11.6847C16.6708 11.8949 16.1211 12 15.4677 12H11.739ZM13.5842 10.4915H15.0884C15.6026 10.4915 15.9776 10.3935 16.2134 10.1974C16.4492 9.99858 16.5671 9.73437 16.5671 9.40483C16.5671 9.16335 16.5089 8.95028 16.3924 8.76562C16.2759 8.58097 16.1097 8.43608 15.8938 8.33097C15.6808 8.22585 15.4265 8.1733 15.131 8.1733H13.5842V10.4915ZM13.5842 6.92472H14.9521C15.2049 6.92472 15.4293 6.88068 15.6254 6.79261C15.8242 6.7017 15.9805 6.57386 16.0941 6.40909C16.2106 6.24432 16.2688 6.04688 16.2688 5.81676C16.2688 5.50142 16.1566 5.24716 15.9322 5.05398C15.7106 4.8608 15.3952 4.7642 14.9862 4.7642H13.5842V6.92472Z" fill="black"/>
</svg>
